# xmcd
#
# Track frame offsets: 
#        150
#        16333
#        29456
#        45822
#        62512
#        77335
#        94559
#        112558
#        126098
#        141847
#        155748
#        168792
#        186234
#        203281
#        214773
#        227749
#
# Disc length: 3250 seconds
#
# Revision: 2
# Processed by: cddbd v1.5.2PL0 Copyright (c) Steve Scherf et al.
# Submitted via: ExactAudioCopy v1.0b3
#
DISCID=b80cb010
DTITLE=Various Artist - 25 Jahre Gold Hits
DYEAR=2001
DGENRE=dt. Sclager
TTITLE0=Erste Allgemeine Verunsicherung - Märchenprinz
TTITLE1=Gänsehaut - Karl der Käfer
TTITLE2=Howard Carpendale - Hello Again
TTITLE3=Chris Wolf - Am Strand von Maspalomas
TTITLE4=Flippers - Mexico
TTITLE5=Karat - Über sieben Brücken mußt du geh'n
TTITLE6=Frank Zander - Hier kommt Kurt
TTITLE7=Nicki - Wenn i mit dir tanz
TTITLE8=Rex Gildo - Der letzte Sirtaki
TTITLE9=Monica Morell - Ich fange nie mehr was an einem Sonntag an
TTITLE10=Gunther Gabriel - Hey Boss, ich brauch mehr Geld
TTITLE11=Heino - Die schwarze Barbara
TTITLE12=Chris Roberts - Du kannst nicht immer 17 sein
TTITLE13=Heintje - Mama
TTITLE14=Gitti and Erika - Heidi
TTITLE15=Ulli Martin - Ich träume mit offenen Augen von Dir
EXTD=
EXTT0=
EXTT1=
EXTT2=
EXTT3=
EXTT4=
EXTT5=
EXTT6=
EXTT7=
EXTT8=
EXTT9=
EXTT10=
EXTT11=
EXTT12=
EXTT13=
EXTT14=
EXTT15=
PLAYORDER=
